<svg width="24" height="24" viewBox="0 0 24 24" fill="none" xmlns="http://www.w3.org/2000/svg">
<path fill-rule="evenodd" clip-rule="evenodd" d="M18.3374 18.3386H15.6707V14.1615C15.6707 13.1647 15.6512 11.8835 14.2831 11.8835C12.8937 11.8835 12.6818 12.9687 12.6818 14.0892V18.3386H10.0128V9.7487H12.5741V10.9219H12.6105C12.967 10.2467 13.8381 9.53453 15.1369 9.53453C17.8384 9.53453 18.3374 11.3131 18.3374 13.627V18.3386ZM7.00308 8.57419C6.14733 8.57419 5.45558 7.88052 5.45558 7.02569C5.45558 6.17185 6.14733 5.47818 7.00308 5.47818C7.85658 5.47818 8.55033 6.17185 8.55033 7.02569C8.55033 7.88052 7.85658 8.57419 7.00308 8.57419ZM5.6675 18.3386H8.33842V9.7487H5.6675V18.3386ZM19.6667 3H4.32875C3.59542 3 3 3.58134 3 4.29684V19.7012C3 20.418 3.59542 21 4.32875 21H19.6667C20.4008 21 21 20.418 21 19.7012V4.29684C21 3.58134 20.4008 3 19.6667 3Z" fill="black"/>
</svg>
