<svg xmlns="http://www.w3.org/2000/svg" viewBox="0 0 1680 283" width="1680" height="283"><defs><clipPath clipPathUnits="userSpaceOnUse" id="cp1"><path d="M0 -222L1683 -222L1683 283L0 283L0 -222Z" /></clipPath></defs><style>tspan { white-space:pre }.shp0 { opacity: 0.6;fill: #ffbf3d } .shp1 { fill: #ffbf3d } </style><g clip-path="url(#cp1)"><g ><path class="shp0" d="M-248.84 -388.95C131.56 -418.29 347.91 -472.9 651.75 -510.93C941.39 -547.18 1329.15 -571.73 1695.25 -614.13L1771.96 48.13C1476.37 52.11 1208.28 120.32 974.54 140.49C607.5 172.17 266.42 249.01 -172.13 273.31L-248.84 -388.95Z" /><path class="shp1" d="M1798 228.08C1418.42 188.64 1186.08 242.95 880.22 228.08C588.66 213.91 202.72 167.59 -165.18 145.78L-119.55 -623.87C171.96 -571.77 448.17 -598.15 681.79 -576.36C1048.66 -542.14 1398.24 -564.37 1834.11 -508.04L1798 228.08Z" /></g></g></svg>