<svg width="1680" height="505" viewBox="0 0 1680 505" fill="none" xmlns="http://www.w3.org/2000/svg">
<g clip-path="url(#clip0)">
<path opacity="0.6" d="M-248.843 -166.951C131.558 -196.295 347.909 -250.898 651.752 -288.928C941.394 -325.181 1329.15 -349.73 1695.25 -392.134L1771.96 270.13C1476.37 274.111 1208.28 342.321 974.544 362.494C607.501 394.171 266.421 471.008 -172.134 495.313L-248.843 -166.951Z" fill="#FFBF3D"/>
<path d="M1798 450.083C1418.42 410.641 1186.08 464.953 880.223 450.083C588.661 435.909 202.717 389.591 -165.18 367.78L-119.55 -401.869C171.96 -349.768 448.165 -376.153 681.789 -354.36C1048.66 -320.139 1398.24 -342.372 1834.11 -286.043L1798 450.083Z" fill="#FFBF3D"/>
</g>
<defs>
<clipPath id="clip0">
<rect width="1683" height="505" fill="white"/>
</clipPath>
</defs>
</svg>
