<svg width="1680" height="582" viewBox="0 0 1680 582" fill="none" xmlns="http://www.w3.org/2000/svg">
<g clip-path="url(#clip0)">
<path opacity="0.6" d="M-231.536 -94.8196C149.794 -82.4117 370.817 -113.042 676.996 -117.636C968.865 -122.016 1356.99 -104.038 1725.52 -106.176L1729.39 560.504C1435.14 532.156 1161.2 570.657 926.658 565.162C558.351 556.535 210.917 595.633 -227.667 571.861L-231.536 -94.8196Z" fill="#52CFE5"/>
<path d="M1822.08 504.85C1436.12 489.421 1204.92 559.224 895.016 563.874C599.594 568.307 206.767 546.342 -166.254 547.97L-169.661 -232.398C128.149 -198.517 405.451 -242.932 642.839 -235.945C1015.62 -224.971 1367.31 -269.911 1811.21 -241.044L1822.08 504.85Z" fill="#52CFE5"/>
</g>
<defs>
<clipPath id="clip0">
<rect width="1683" height="582" fill="white"/>
</clipPath>
</defs>
</svg>
