<svg width="1680" height="688" viewBox="0 0 1680 688" fill="none" xmlns="http://www.w3.org/2000/svg">
<g clip-path="url(#clip0)">
<path d="M-258.953 14.8549C121.449 -14.4886 337.799 -69.0921 641.643 -107.122C931.285 -143.375 1319.04 -167.923 1685.14 -210.328L1761.85 451.936C1466.26 455.918 1198.17 524.127 964.435 544.3C597.391 575.978 256.312 652.814 -182.243 677.119L-258.953 14.8549Z" fill="#F7F7F7"/>
<path d="M43.9054 -137.712C423.145 -95.958 645.871 -109.467 951.495 -90.4548C1242.83 -72.3314 1628.41 -24.5003 1996.02 1.76471L1948.51 666.761C1657.31 615.824 1381.22 633.102 1147.8 609.552C781.255 572.57 431.841 584.78 -3.608 527.284L43.9054 -137.712Z" fill="#F7F7F7"/>
<path d="M1799 585C1419.42 545.558 1186.08 647.953 880.223 633.083C588.661 618.909 202.716 572.591 -165.181 550.78L-119.551 -218.869C171.96 -166.768 448.165 -193.153 681.788 -171.36C1048.66 -137.139 1398.24 -159.372 1834.11 -103.043L1799 585Z" fill="#EBEBEB"/>
</g>
<defs>
<clipPath id="clip0">
<rect width="1683" height="688" fill="white"/>
</clipPath>
</defs>
</svg>
