<svg xmlns="http://www.w3.org/2000/svg" width="24" height="24" viewBox="0 0 24 24"><path d="M19,3.5H16.5V2a.5.5,0,0,0-1,0V3.5h-7V2a.5.5,0,0,0-1,0V3.5H5A2.5,2.5,0,0,0,2.5,6V20A2.5,2.5,0,0,0,5,22.5H19A2.5,2.5,0,0,0,21.5,20V6A2.5,2.5,0,0,0,19,3.5ZM5,4.5H7.5V6a.5.5,0,0,0,1,0V4.5h7V6a.5.5,0,0,0,1,0V4.5H19A1.51,1.51,0,0,1,20.5,6V9.5H3.5V6A1.51,1.51,0,0,1,5,4.5Zm14,17H5A1.51,1.51,0,0,1,3.5,20V10.5h17V20A1.51,1.51,0,0,1,19,21.5Z" fill-rule="evenodd"/><path d="M24,24H0V0H24Z" fill="none" fill-rule="evenodd"/></svg>