<svg width="24" height="24" viewBox="0 0 24 24" fill="none" xmlns="http://www.w3.org/2000/svg">
<path fill-rule="evenodd" clip-rule="evenodd" d="M12 22C17.5258 22 22 17.5258 22 12C22 6.47415 17.5258 2 12 2C6.47415 2 2 6.47415 2 12C2 17.5258 6.47415 22 12 22ZM17.0086 12C17.0086 13.2121 16.0282 14.2103 14.7983 14.2103C13.5683 14.2103 12.5879 13.2121 12.5879 12C12.5879 10.7879 13.5683 9.78965 14.7983 9.78965C16.0282 9.78965 17.0086 10.77 17.0086 12ZM9.18335 14.2103C10.4133 14.2103 11.3937 13.2121 11.3937 12C11.3937 10.77 10.4133 9.78965 9.18335 9.78965C7.9534 9.78965 6.97301 10.7879 6.97301 12C6.97301 13.2121 7.97123 14.2103 9.18335 14.2103Z" fill="#1F1F1F"/>
</svg>
