<svg xmlns="http://www.w3.org/2000/svg" width="24" height="24" viewBox="0 0 24 24"><path d="M24,24H0V0H24Z" fill="none" fill-rule="evenodd"/><path d="M12,1.5A10.5,10.5,0,1,0,22.5,12,10.51,10.51,0,0,0,12,1.5Zm9.47,10h-5a15.89,15.89,0,0,0-3.33-8.93A9.51,9.51,0,0,1,21.47,11.5Zm-12.94,1h6.93A14.74,14.74,0,0,1,12,21.25,14.89,14.89,0,0,1,8.53,12.5Zm0-1A14.74,14.74,0,0,1,12,2.75a14.89,14.89,0,0,1,3.47,8.75Zm2.32-8.93A15.9,15.9,0,0,0,7.54,11.5h-5A9.51,9.51,0,0,1,10.86,2.57ZM2.53,12.5h5a15.89,15.89,0,0,0,3.33,8.93A9.51,9.51,0,0,1,2.53,12.5Zm10.61,8.93a15.9,15.9,0,0,0,3.32-8.93h5A9.51,9.51,0,0,1,13.14,21.43Z"/></svg>