<svg xmlns="http://www.w3.org/2000/svg" width="23.63" height="23.63" viewBox="0 0 23.63 23.63"><title>information-button</title><path d="M11.81,0A11.81,11.81,0,1,0,23.63,11.81,11.81,11.81,0,0,0,11.81,0Zm2.46,18.31q-.91.36-1.45.55a3.84,3.84,0,0,1-1.26.19,2.52,2.52,0,0,1-1.72-.54,1.74,1.74,0,0,1-.61-1.37,5,5,0,0,1,0-.66c0-.22.08-.48.15-.76L10.18,13c.07-.26.13-.5.17-.73a3.24,3.24,0,0,0,.07-.63,1,1,0,0,0-.21-.72,1.2,1.2,0,0,0-.81-.2,2.13,2.13,0,0,0-.61.09L8.26,11l.2-.83q.75-.3,1.43-.52a4.22,4.22,0,0,1,1.29-.22,2.47,2.47,0,0,1,1.69.53,1.76,1.76,0,0,1,.59,1.38q0,.18,0,.62a4.13,4.13,0,0,1-.15.81l-.76,2.68c-.06.22-.12.46-.17.74a3.89,3.89,0,0,0-.07.63.9.9,0,0,0,.24.73,1.34,1.34,0,0,0,.83.19,2.4,2.4,0,0,0,.63-.1,3.56,3.56,0,0,0,.51-.17ZM14.14,7.43a1.81,1.81,0,0,1-1.27.49,1.83,1.83,0,0,1-1.28-.49A1.57,1.57,0,0,1,11,6.24,1.59,1.59,0,0,1,11.58,5a1.81,1.81,0,0,1,1.28-.5,1.79,1.79,0,0,1,1.27.5,1.61,1.61,0,0,1,0,2.39Z" transform="translate(0 0)" fill="#030104"/></svg>