<?xml version="1.0" encoding="UTF-8"?> <svg xmlns="http://www.w3.org/2000/svg" width="134.68" height="128.71" viewBox="0 0 134.68 128.71"><path d="M75.41,128.66V80.18a19.8,19.8,0,0,1,1-7C78.49,68,83.24,62.63,91.2,62.63c10.45,0,14.62,8,14.62,19.63v46.45h28.86l-.06-.05V78.89c0-26.67-14.24-39.08-33.22-39.08-15.32,0-22.18,8.43-26,14.34V41.85H46.56c.38,8.14,0,86.81,0,86.81Z" transform="translate(0 0)"></path><rect x="1.71" y="41.85" width="28.85" height="86.81"></rect><path d="M16,30h.14c10.06,0,16.32-6.67,16.32-15C32.28,6.49,26.2,0,16.33,0S0,6.47,0,15C0,23.34,6.27,30,16,30Z" transform="translate(0 0)"></path></svg> 