<svg id="Layer_1" data-name="Layer 1" xmlns="http://www.w3.org/2000/svg" viewBox="0 0 24 24"><defs><style>.cls-1{fill:#027c9a;}</style></defs><circle class="cls-1" cx="12" cy="12" r="3.2"/><path class="cls-1" d="M21.4,8.1A6.8,6.8,0,0,0,21,5.8a4.52,4.52,0,0,0-1.1-1.7A4.52,4.52,0,0,0,18.2,3a6.8,6.8,0,0,0-2.3-.4A32.63,32.63,0,0,0,12,2.5a32.63,32.63,0,0,0-3.9.1A6.8,6.8,0,0,0,5.8,3,4.52,4.52,0,0,0,4.1,4.1,4.52,4.52,0,0,0,3,5.8a6.8,6.8,0,0,0-.4,2.3A32.63,32.63,0,0,0,2.5,12a32.63,32.63,0,0,0,.1,3.9A6.8,6.8,0,0,0,3,18.2a4.52,4.52,0,0,0,1.1,1.7A4.52,4.52,0,0,0,5.8,21a6.8,6.8,0,0,0,2.3.4c1,0,1.3.1,3.9.1a32.63,32.63,0,0,0,3.9-.1,6.8,6.8,0,0,0,2.3-.4A4.83,4.83,0,0,0,21,18.2a6.8,6.8,0,0,0,.4-2.3c0-1,.1-1.3.1-3.9A32.63,32.63,0,0,0,21.4,8.1ZM12,16.9A4.9,4.9,0,1,1,16.9,12,4.91,4.91,0,0,1,12,16.9ZM17.1,8a1.1,1.1,0,1,1,1.1-1.1A1.11,1.11,0,0,1,17.1,8Z"/></svg>