<svg width="24" height="24" viewBox="0 0 24 24" fill="none" xmlns="http://www.w3.org/2000/svg">
<path fill-rule="evenodd" clip-rule="evenodd" d="M 18.3374 18.3386 H 15.6707 V 14.1615 C 15.6707 13.1647 15.6512 11.8835 14.2831 11.8835 C 12.8937 11.8835 12.6818 12.9687 12.6818 14.0892 V 18.3386 H 10.0128 V 9.7487 H 12.5741 V 10.9219 H 12.6105 C 12.967 10.2467 13.8381 9.5345 15.1369 9.5345 C 17.8384 9.5345 18.3374 11.3131 18.3374 13.627 V 18.3386 Z M 7.0031 8.5742 C 6.1473 8.5742 5.4556 7.8805 5.4556 7.0257 C 5.4556 6.1719 6.1473 5.4782 7.0031 5.4782 C 7.8566 5.4782 8.5503 6.1719 8.5503 7.0257 C 8.5503 7.8805 7.8566 8.5742 7.0031 8.5742 Z M 8.3384 18.3386 H 5.6675 V 9.7487 H 8.3384 V 18.3386 Z M 19.6667 3 H 4.3288 C 3.5954 3 3 3.5813 3 4.2968 V 19.7012 C 3 20.418 3.5954 21 4.3288 21 H 19.6667 C 20.4008 21 21 20.418 21 19.7012 V 4.2968 C 21 3.5813 20.4008 3 19.6667 3 Z" fill="black"/>
</svg>
