<?xml version="1.0" encoding="UTF-8"?> <svg xmlns="http://www.w3.org/2000/svg" width="159.54" height="149.9" viewBox="0 0 159.54 149.9"><path d="M20.48,125.55c1.29.16,1.76,2.09,2.43,5.16.26,1.19.53,2.42.91,3.7a2.11,2.11,0,0,0,2.33,1.66,19,19,0,0,0,3.36-.48,44.63,44.63,0,0,1,9-1,40.57,40.57,0,0,1,6.51.55c4.5.75,8.38,3.46,12.38,6.32,5.87,4.15,11.94,8.44,21.4,8.44h2c9.41,0,15.53-4.29,21.41-8.45,4-2.86,7.87-5.56,12.37-6.31a40.57,40.57,0,0,1,6.51-.55,44.63,44.63,0,0,1,9,1,19.06,19.06,0,0,0,3.36.42h.19a2,2,0,0,0,2.14-1.6c.37-1.26.64-2.46.91-3.68.73-3.35,1.21-4.95,2.43-5.14,15-2.31,19.3-5.47,20.25-7.7a2.74,2.74,0,0,0,.16-1.06,1.7,1.7,0,0,0-1.42-1.76c-23.07-3.8-33.4-27.37-33.83-28.37a.11.11,0,0,0,0-.08c-1.41-2.86-1.68-5.38-.82-7.38,1.58-3.73,6.74-5.36,10.16-6.45.84-.27,1.63-.52,2.25-.76,6-2.36,7.2-4.66,7.17-6.36s-1.55-3.32-3.86-4.14a7.5,7.5,0,0,0-2.77-.53,6,6,0,0,0-2.4.47,20.58,20.58,0,0,1-7.75,2.15,6.56,6.56,0,0,1-4.48-1.55c.08-1.4.17-2.89.27-4.4v-.48c.69-10.89,1.54-24.45-1.91-32.19C109.81,1.8,87.84,0,81.36,0H78.14C71.66,0,49.74,1.82,39.4,25c-3.4,7.73-2.59,21.28-1.91,32.18.11,1.68.21,3.31.3,4.87-.18.18-1.62,1.57-4.91,1.57a19.82,19.82,0,0,1-8.22-2.17,4.46,4.46,0,0,0-1.87-.37c-2.59,0-5.8,1.67-6.26,4.08-.27,1.41.3,4.17,7.12,6.87.62.25,1.41.5,2.25.76,3.42,1.08,8.58,2.72,10.16,6.45.86,2,.59,4.52-.82,7.38v.08c-.43,1-10.77,24.57-33.83,28.37A1.7,1.7,0,0,0,0,116.83a2.61,2.61,0,0,0,.23,1C1.18,120.07,5.48,123.23,20.48,125.55Z" transform="translate(0 0)"></path></svg> 