<svg xmlns="http://www.w3.org/2000/svg" width="24" height="24" viewBox="0 0 24 24"><path d="M22,7.94c-.08,1.92-1.44,4.53-4.08,7.86S12.9,21,11,21c-1.16,0-2.16-1.06-3-3.18L6.42,12Q5.52,8.82,4.5,8.82a6.61,6.61,0,0,0-1.56.92L2,8.57C3,7.73,4,6.86,4.92,6a6.66,6.66,0,0,1,3-1.77c1.56-.13,2.52.91,2.88,3.14.38,2.41.66,3.92.8,4.51.44,2,.94,3,1.48,3s1-.65,1.88-1.94a7.5,7.5,0,0,0,1.34-3c.12-1.12-.32-1.69-1.34-1.69a4,4,0,0,0-1.48.32c1-3.18,2.88-4.71,5.64-4.63C21.14,4.06,22.1,5.37,22,7.94Z" fill="#1f1f1f"/><path d="M24,24H0V0H24Z" fill="none" fill-rule="evenodd"/></svg>