<svg width="214" height="167" viewBox="0 0 214 167" fill="none" xmlns="http://www.w3.org/2000/svg">
<path opacity="0.1" d="M2.63311 150.11C20.6659 141.387 34.789 131.237 45.0022 119.66C55.2155 108.082 61.1201 94.0465 62.7159 77.5527H49.311C39.4169 77.5527 31.3579 76.4425 25.1342 74.2222C18.9105 72.0019 13.8837 68.9093 10.0537 64.9444C6.3833 61.1382 3.75019 56.9354 2.15436 52.3362C0.718121 47.7369 0 42.9791 0 38.0627C0 27.9126 4.06935 19.0313 12.2081 11.4188C20.5063 3.80627 30.2409 0 41.4116 0C58.9657 0 72.4504 5.7887 81.8658 17.3661C91.2811 28.9435 95.9888 44.9615 95.9888 65.4202C95.9888 84.4516 87.8501 103.641 71.5727 122.99C55.4549 142.339 35.9858 157.009 13.1655 167L2.63311 150.11ZM120.644 150.11C138.677 141.387 152.8 131.237 163.013 119.66C173.227 108.082 179.131 94.0465 180.727 77.5527H167.322C157.428 77.5527 149.369 76.4425 143.145 74.2222C136.922 72.0019 131.895 68.9093 128.065 64.9444C124.394 61.1382 121.761 56.9354 120.166 52.3362C118.729 47.7369 118.011 42.9791 118.011 38.0627C118.011 27.9126 122.081 19.0313 130.219 11.4188C138.518 3.80627 148.252 0 159.423 0C176.977 0 190.462 5.7887 199.877 17.3661C209.292 28.9435 214 44.9615 214 65.4202C214 84.4516 205.861 103.641 189.584 122.99C173.466 142.339 153.997 157.009 131.177 167L120.644 150.11Z" fill="white"/>
</svg>
