<svg xmlns="http://www.w3.org/2000/svg" viewBox="0 0 1680 163" width="1680" height="163"><style>tspan { white-space:pre }.shp0 { fill: #1F1F1F; opacity: 0.8; } .shp1 { fill: #1F1F1F; } </style><path class="shp0" d="M-242.44 230.29C138.63 211.63 356.43 163.12 661.22 133.62C951.76 105.51 1340.06 91.84 1707.2 59.72L1765.31 723.88C1469.72 719.57 1199.82 780.23 965.62 793.84C597.83 815.21 254.73 882.45 -184.34 894.45L-242.44 230.29Z" /><path class="shp1" d="M1775.71 897.12C1397.29 848.18 1174.17 860.43 868.87 836.77C577.84 814.22 193.21 758.67 -173.93 726.54L-111.27 10.36C178.87 68.28 455.45 52.52 688.42 80.32C1054.26 123.98 1404.07 114.45 1838.37 180.93L1775.71 897.12Z" /></svg>