<svg width="1680" height="474" viewBox="0 0 1680 474" fill="none" xmlns="http://www.w3.org/2000/svg">
<g clip-path="url(#clip0)">
<path opacity="0.6" d="M-258.953 -199.145C121.449 -228.489 337.799 -283.092 641.643 -321.122C931.285 -357.375 1319.04 -381.923 1685.14 -424.328L1761.85 237.936C1466.26 241.918 1198.17 310.127 964.435 330.3C597.391 361.978 256.312 438.814 -182.243 463.119L-258.953 -199.145Z" fill="#52CFE5"/>
<path opacity="0.6" d="M43.9054 -351.712C423.145 -309.958 645.871 -323.467 951.495 -304.455C1242.83 -286.331 1628.41 -238.5 1996.02 -212.235L1948.51 452.761C1657.31 401.824 1381.22 419.102 1147.8 395.552C781.255 358.57 431.841 370.78 -3.608 313.284L43.9054 -351.712Z" fill="#52CFE5"/>
<path d="M1799 371C1419.42 331.559 1122.56 423.175 803 409C525.438 394.826 202.716 358.591 -165.181 336.78L-119.551 -432.869C171.96 -380.768 448.164 -407.152 681.788 -385.36C1048.66 -351.139 1398.24 -373.372 1834.11 -317.043L1799 371Z" fill="#52CFE5"/>
</g>
<defs>
<clipPath id="clip0">
<rect width="1680" height="474" fill="white"/>
</clipPath>
</defs>
</svg>
