<svg xmlns="http://www.w3.org/2000/svg" viewBox="0 0 1680 161" width="1680" height="161"><style>tspan { white-space:pre }.shp0 { fill: #f7f7f7 } .shp1 { fill: #ebebeb } </style><path class="shp0" d="M1924.44 -50.29C1543.37 -31.63 1325.57 16.88 1020.78 46.38C730.24 74.49 341.94 88.16 -25.2 120.28L-83.31 -543.88C212.28 -539.57 482.18 -600.23 716.39 -613.84C1084.17 -635.21 1427.27 -702.45 1866.34 -714.45L1924.44 -50.29Z" /><path class="shp1" d="M-93.71 -713.12C284.71 -664.18 507.83 -676.43 813.13 -652.77C1104.16 -630.21 1488.79 -574.67 1855.93 -542.54L1793.27 173.64C1503.13 115.73 1226.55 131.48 993.58 103.68C627.74 60.02 277.93 69.55 -156.37 3.07L-93.71 -713.12Z" /></svg>