<svg xmlns="http://www.w3.org/2000/svg" viewBox="0 0 1680 163" width="1680" height="163"><style>tspan { white-space:pre }.shp0 { fill: #f7f7f7 } .shp1 { fill: #ebebeb } </style><path class="shp0" d="M-242.44 188.29C138.63 169.63 356.43 121.12 661.22 91.62C951.76 63.51 1340.06 49.84 1707.2 17.72L1765.31 681.88C1469.72 677.57 1199.82 738.23 965.62 751.84C597.83 773.21 254.73 840.45 -184.34 852.45L-242.44 188.29Z" /><path class="shp1" d="M1775.71 897.12C1397.29 848.18 1174.17 860.43 868.87 836.77C577.84 814.22 193.21 758.67 -173.93 726.54L-111.27 10.36C178.87 68.28 455.45 52.52 688.42 80.32C1054.26 123.98 1404.07 114.45 1838.37 180.93L1775.71 897.12Z" /></svg>