<svg xmlns="http://www.w3.org/2000/svg" viewBox="0 0 1680 884" width="1680" height="884"><defs><clipPath clipPathUnits="userSpaceOnUse" id="cp1"><path d="M0 0L1683 0L1683 884L0 884L0 0Z" /></clipPath></defs><style>tspan { white-space:pre }.shp0 { opacity: 0.8;fill: #1f1f1f } .shp1 { fill: #1f1f1f } </style><g clip-path="url(#cp1)"><g ><path class="shp0" d="M-242.44 107.29C138.63 88.63 356.43 40.12 661.22 10.62C951.76 -17.49 1340.06 -31.16 1707.2 -63.28L1707.2 784C1411.62 779.69 959.21 714.39 725 728C357.21 749.37 254.73 759.45 -184.34 771.45L-242.44 107.29Z" /><path class="shp1" d="M1775.83 743.73C1397.51 693.66 1174.19 708.19 868.87 684.75C577.82 662.4 193.33 605.28 -173.81 573.16L-106.61 -194.91C183.32 -134.65 460.16 -153.28 693.08 -124.94C1058.84 -80.44 1408.91 -92.86 1843.03 -24.33L1775.83 743.73Z" /></g></g></svg>