<svg xmlns="http://www.w3.org/2000/svg" viewBox="0 0 1680 148" width="1680" height="148"><defs><clipPath clipPathUnits="userSpaceOnUse" id="cp1"><path d="M0 -654L1683 -654L1683 148L0 148L0 -654Z" /></clipPath></defs><style>tspan { white-space:pre }.shp0 { opacity: 0.8;fill: #1f1f1f } .shp1 { fill: #1f1f1f } </style><g clip-path="url(#cp1)"><g ><path class="shp0" d="M-242.44 -549.71C138.63 -568.37 356.43 -616.88 661.22 -646.38C951.76 -674.49 1340.06 -688.16 1707.2 -720.28L1765.31 -56.12C1469.72 -60.43 1199.82 0.23 965.62 13.84C597.83 35.21 254.73 102.45 -184.34 114.45L-242.44 -549.71Z" /><path class="shp1" d="M1775.83 157.73C1397.51 107.66 1174.19 122.19 868.87 98.75C577.82 76.4 193.33 19.28 -173.81 -12.84L-106.61 -780.91C183.32 -720.65 460.16 -739.28 693.08 -710.94C1058.84 -666.44 1408.91 -678.87 1843.03 -610.33L1775.83 157.73Z" /></g></g></svg>